<svg width="1728" height="942" viewBox="0 0 1728 942" fill="none" xmlns="http://www.w3.org/2000/svg">
<g clip-path="url(#clip0_418_43)">
<path d="M1856.76 476.058L1857.36 480.111C1663.76 398.84 1590.58 390.784 1565.64 418.198C1549.5 435.962 1553.18 469.05 1557.35 506.852C1561.88 547.953 1567.07 594.562 1548.07 633.949C1509.83 713.378 1374.2 762.694 940.396 676.215C565.65 601.491 213.231 651.355 -47.2192 720.75L-47.6828 717.579C213.413 648.09 566.498 598.269 941.918 673.092C1372.4 758.901 1506.56 710.872 1544 633.136C1562.63 594.451 1557.54 548.222 1553.01 507.43C1548.75 469.021 1545.03 435.377 1562.11 416.602C1588.31 387.737 1662.53 394.937 1856.76 476.058ZM1854.2 458.522L1854.79 462.575C1658.7 380.458 1584.6 373.269 1558.47 402.013C1541.86 420.296 1544.27 453.484 1546.96 491.249C1549.82 531.298 1553.08 576.414 1534.48 615.04C1495.23 696.561 1359.36 748.502 920.126 660.958C546.423 586.476 202.248 632.487 -50.5207 698.168L-50.9843 694.997C202.43 629.222 547.264 583.199 921.648 657.835C1357.53 744.714 1491.92 694.088 1530.4 614.2C1548.71 576.209 1545.46 531.457 1542.6 491.689C1539.82 453.345 1537.41 419.622 1554.89 400.367C1582.3 370.254 1657.48 376.582 1854.2 458.522ZM1851.64 441.014L1852.23 445.067C1653.65 362.103 1578.52 355.825 1551.18 385.899C1534.14 404.668 1535.25 437.962 1536.53 475.652C1537.84 514.577 1539.32 558.151 1521.11 595.987C1480.78 679.693 1344.73 734.419 899.902 645.751C527.273 571.45 191.307 613.642 -53.8142 675.642L-54.2777 672.471C191.489 610.377 528.075 568.178 901.419 642.601C1342.9 730.605 1477.5 677.187 1517.03 595.147C1534.94 557.946 1533.47 514.68 1532.16 476.009C1530.87 437.757 1529.69 403.966 1547.61 384.253C1576.22 352.81 1652.39 358.205 1851.64 441.014ZM1849.08 423.506L1849.67 427.559C1648.48 343.709 1572.36 338.392 1543.79 369.857C1526.32 389.084 1526.19 422.418 1526.06 460.004C1525.91 497.762 1525.77 539.771 1507.97 576.702C1466.57 662.649 1330.41 720.32 879.707 630.483C508.161 556.418 180.412 594.846 -57.1036 653.143L-57.5672 649.972C180.594 591.581 509.009 553.196 881.191 627.366C1328.54 716.539 1463.22 660.181 1503.85 575.868C1521.39 539.511 1521.53 497.783 1521.67 460.279C1521.8 422.158 1521.94 388.344 1540.26 368.206C1570.1 335.372 1647.21 339.811 1849.08 423.506ZM1846.52 405.97L1847.11 410.023C1643.31 325.288 1566.17 320.964 1536.26 353.865C1518.35 373.578 1516.97 406.897 1515.46 444.346C1513.97 480.864 1512.32 521.265 1495 557.225C1452.46 645.505 1316.3 706.331 859.441 615.254C489.132 541.43 169.555 576.044 -60.389 630.672L-60.8526 627.501C169.737 572.779 489.98 538.208 860.963 612.131C1314.43 702.522 1449.16 643.06 1490.92 556.385C1508 520.938 1509.62 480.824 1511.11 444.533C1512.66 406.57 1514.04 372.771 1532.72 352.214C1563.87 317.977 1642.04 321.418 1846.52 405.97ZM1843.96 388.462L1844.55 392.515C1638.01 306.856 1559.86 303.581 1528.62 337.972C1510.3 358.11 1507.73 391.436 1504.83 428.694C1502.11 463.9 1499.08 502.615 1482.26 537.515C1438.57 628.218 1302.47 692.386 839.178 600.053C470.112 526.497 158.672 557.331 -63.7084 608.234L-64.1679 605.091C158.854 554.066 470.994 523.242 840.662 596.935C1300.56 688.61 1435.23 625.778 1478.11 536.714C1494.69 502.299 1497.67 463.816 1500.39 428.836C1503.33 391.093 1505.96 357.337 1524.97 336.393C1557.57 300.594 1636.75 302.986 1843.96 388.462ZM1841.4 370.954L1841.99 375.007C1632.68 288.402 1553.49 286.237 1520.88 322.152C1502.19 342.709 1498.4 375.958 1494.16 412.992C1490.3 446.815 1486.08 483.76 1469.83 517.507C1424.95 610.693 1289.03 678.496 818.984 584.785C451.315 511.504 147.937 538.568 -66.9477 585.812L-67.4073 582.669C148.123 535.331 452.201 508.276 820.472 581.695C1287.12 674.72 1421.57 608.287 1465.72 516.701C1481.76 483.406 1485.97 446.659 1489.78 413.04C1494.07 375.522 1497.92 341.869 1517.3 320.534C1551.15 283.228 1631.41 284.504 1841.4 370.954ZM1838.83 353.418L1839.42 357.443C1627.25 269.849 1546.99 268.881 1512.94 306.358C1493.92 327.275 1488.92 360.448 1483.4 397.246C1478.54 429.581 1473.24 464.712 1457.63 497.185C1411.5 592.975 1275.95 664.638 798.714 569.528C432.565 496.56 137.172 519.866 -70.221 563.424L-70.6806 560.281C137.4 516.65 433.447 493.305 800.24 566.432C1274 660.868 1408.16 590.591 1453.52 496.406C1468.96 464.353 1474.21 429.397 1479.05 397.233C1484.63 360.006 1489.69 326.457 1509.38 304.796C1544.69 265.895 1625.99 266.034 1838.83 353.418ZM1836.27 335.91L1836.86 339.935C1621.75 251.334 1540.43 251.592 1504.87 290.698C1485.52 312 1479.37 345.004 1472.6 381.505C1466.9 412.275 1460.7 445.482 1445.76 476.531C1398.32 575.048 1263.35 650.907 778.519 554.26C413.857 481.638 126.499 501.263 -73.4823 541.118L-73.9378 538.002C126.727 498.047 414.781 478.405 780.011 551.198C1261.37 647.142 1394.99 572.663 1441.65 475.78C1456.45 445.09 1462.59 412.031 1468.28 381.432C1475.15 344.523 1481.36 311.117 1501.34 289.13C1538.13 248.605 1620.49 247.491 1836.27 335.91ZM1833.71 318.401L1834.3 322.427C1616.17 232.803 1533.8 234.342 1496.7 275.137C1477.05 296.765 1469.79 329.621 1461.77 365.798C1455.35 394.842 1448.43 426.043 1434.23 455.547C1385.43 556.882 1251.24 637.33 758.257 539.058C395.304 466.721 115.868 482.682 -76.7354 518.867L-77.1909 515.752C116.134 479.461 396.232 463.516 759.745 535.968C1249.21 633.543 1382.05 554.503 1430.12 454.74C1444.2 425.534 1451.07 394.482 1457.43 365.587C1465.51 329.035 1472.88 295.826 1493.13 273.546C1531.46 231.361 1614.91 228.96 1833.71 318.401ZM1831.15 300.866L1831.74 304.891C1610.5 214.201 1527.01 217.086 1488.34 259.658C1468.43 281.579 1460.05 314.205 1450.89 350.013C1443.93 377.221 1436.5 406.271 1423.1 434.026C1372.86 538.303 1239.72 623.807 738.024 523.796C376.874 451.843 105.321 464.145 -79.9805 496.672L-80.436 493.556C105.588 460.924 377.84 448.632 739.512 520.706C1237.69 620.02 1369.49 535.952 1418.98 433.22C1432.22 405.713 1439.64 376.806 1446.58 349.714C1455.84 313.552 1464.29 280.58 1484.77 258.04C1524.67 214.132 1609.24 210.358 1831.15 300.866ZM1828.59 283.357L1829.18 287.383C1604.71 195.587 1520.15 199.924 1479.82 244.318C1459.67 266.498 1450.24 298.882 1439.97 334.261C1432.64 359.44 1424.9 386.142 1412.43 412.015C1360.71 519.409 1229.05 610.498 717.804 508.616C358.603 436.998 94.8626 445.679 -83.2175 474.532L-83.669 471.444C95.1328 442.486 359.569 433.787 719.288 505.499C1226.94 606.695 1357.33 517.03 1408.32 411.208C1420.64 385.638 1428.38 358.992 1435.69 333.902C1446.06 298.169 1455.57 265.521 1476.29 242.722C1517.82 196.943 1603.45 191.744 1828.59 283.357ZM1826.03 265.822L1826.62 269.847C1598.84 176.902 1513.14 182.757 1471.11 229.061C1450.72 251.5 1440.32 283.549 1428.97 318.466C1386.51 449.12 1331.13 619.65 697.534 493.36C340.493 422.186 84.4879 427.258 -86.4425 452.474L-86.894 449.386C84.7581 424.064 341.501 418.997 699.06 490.264C1328.02 615.627 1382.76 447.132 1424.72 318.018C1436.17 282.775 1446.69 250.429 1467.54 227.47C1510.81 179.831 1597.58 173.087 1826.03 265.822ZM1823.47 248.313L1824.06 252.339C1592.89 158.228 1506.07 165.683 1462.19 213.947C1441.63 236.552 1430.28 268.26 1417.94 302.676C1370.89 433.831 1309.79 604.185 677.305 478.125C322.584 407.429 74.1632 408.914 -89.6593 430.472L-90.1108 427.383C74.4714 405.714 323.622 404.179 678.827 475.002C1306.83 600.168 1367.21 431.777 1413.71 302.14C1426.17 267.425 1437.63 235.448 1458.65 212.323C1503.7 162.735 1591.59 154.391 1823.47 248.313ZM1820.9 230.778L1821.49 234.803C1586.77 139.466 1498.8 148.638 1453.09 198.944C1432.4 221.709 1420.14 252.987 1406.86 286.864C1355.23 418.52 1288.48 588.742 657.077 462.89C304.832 392.677 64.0106 390.685 -92.8561 408.607L-93.2995 405.574C64.3228 387.513 305.878 389.482 658.561 459.773C1285.57 584.746 1351.59 416.433 1402.65 286.239C1416.05 252.12 1428.4 220.577 1449.51 197.326C1496.47 145.684 1585.47 135.628 1820.9 230.778ZM1818.34 213.269L1818.93 217.295C1580.57 120.687 1491.43 131.664 1443.78 184.112C1423.03 206.943 1409.92 237.781 1395.78 271.052C1339.56 403.209 1267.22 573.321 636.849 447.655C287.281 377.98 53.9461 372.528 -96.0367 386.853L-96.4801 383.82C54.3003 369.378 288.365 374.78 638.333 444.538C1264.42 569.336 1336 401.083 1391.6 270.339C1405.83 236.858 1419.05 205.778 1440.25 182.488C1489.1 128.71 1579.24 116.855 1818.34 213.269ZM1815.78 195.761L1816.37 199.787C1574.18 101.881 1483.92 114.767 1434.26 169.423C1413.44 192.321 1399.56 222.625 1384.65 255.19C1323.86 387.848 1245.99 557.866 616.62 432.421C270.009 363.327 44.0197 354.52 -99.1971 365.236L-99.6365 362.231C44.4159 351.392 271.177 360.171 618.104 429.303C1243.28 553.926 1320.36 385.712 1380.51 254.444C1395.54 221.636 1409.54 191.117 1430.69 167.805C1481.55 111.819 1572.88 98.0439 1815.78 195.761ZM1813.22 178.225L1813.81 182.251C1567.68 82.9485 1476.25 97.8928 1424.46 154.889C1403.67 177.754 1389.08 207.485 1373.45 239.34C1308.12 372.52 1224.75 542.412 596.35 417.164C253.057 348.739 34.2614 336.6 -102.341 343.73L-102.773 340.78C34.6996 333.494 254.266 345.606 597.88 414.096C1222.17 538.537 1304.69 370.345 1369.37 238.528C1385.1 206.491 1399.77 176.578 1420.92 153.293C1473.89 94.9721 1566.35 79.1443 1813.22 178.225ZM1810.66 160.717L1811.25 164.743C1560.96 64.0215 1468.42 81.1565 1414.41 140.587C1393.69 163.386 1378.5 192.444 1362.25 223.489C1292.37 357.165 1203.57 527.007 576.122 401.929C236.348 334.229 24.6791 318.823 -105.458 322.417L-105.881 319.522C25.1634 315.767 237.63 331.057 577.61 398.839C1201.06 523.094 1288.98 354.93 1358.16 222.594C1374.51 191.367 1389.78 162.127 1410.8 138.975C1466.01 78.2413 1559.66 60.1842 1810.66 160.717ZM1808.1 143.181L1808.68 147.207C1554.1 44.9734 1460.39 64.4755 1404.05 126.473C1383.5 149.106 1367.74 177.459 1351 207.617C1276.58 341.788 1182.38 511.575 555.893 386.694C219.994 319.752 15.3151 301.211 -108.545 301.297L-108.961 298.457C15.8414 298.177 221.397 316.618 557.377 383.577C1179.99 507.673 1273.26 339.514 1346.98 206.628C1363.8 176.289 1379.62 147.787 1400.47 124.828C1457.99 61.5604 1552.77 41.1692 1808.1 143.181ZM1805.54 125.673L1806.12 129.699C1547 25.8482 1452.15 47.9106 1393.37 112.602C1373.01 134.981 1356.86 162.519 1339.76 191.744C1260.79 326.411 1161.28 496.187 535.669 371.487C204.119 305.373 6.17316 283.792 -111.601 280.397L-112 277.668C6.82551 280.824 205.607 302.283 537.149 368.342C1158.92 492.279 1257.55 324.098 1335.77 190.695C1352.97 161.342 1369.21 133.651 1389.83 110.979C1449.75 45.023 1545.67 22.0716 1805.54 125.673ZM-44.3852 740.133C224.397 666.957 585.766 613.306 962.146 688.327C1387.44 773.093 1521.26 727.563 1557.75 651.852C1576.71 612.526 1569.55 564.855 1563.32 523.072C1557.59 484.626 1552.57 451.115 1569.18 432.832C1594.24 405.258 1667.5 413.303 1859.33 493.594L1859.92 497.647C1668.73 417.207 1596.51 408.278 1572.75 434.45C1557.08 451.695 1562.01 484.654 1567.65 522.439C1573.97 564.547 1581.15 612.61 1561.87 652.686C1524.57 730.036 1389.27 776.853 960.62 691.422C584.96 616.55 224.252 670.217 -43.9176 743.331L-44.3852 740.133Z" fill="url(#paint0_linear_418_43)" fill-opacity="0.7"/>
</g>
<defs>
<linearGradient id="paint0_linear_418_43" x1="837.562" y1="138.837" x2="934.596" y2="802.522" gradientUnits="userSpaceOnUse">
<stop stop-color="white" stop-opacity="0.3"/>
<stop offset="1" stop-color="#E4E4E4"/>
</linearGradient>
<clipPath id="clip0_418_43">
<rect width="1919.35" height="670.742" fill="white" transform="translate(-112 277.667) rotate(-8.31801)"/>
</clipPath>
</defs>
</svg>
