<svg width="1635" height="586" viewBox="0 0 1635 586" fill="none" xmlns="http://www.w3.org/2000/svg">
<g clip-path="url(#clip0_260_7)">
<path d="M1635 420.335V423.913C1481.83 329.188 1421.14 312.975 1396.75 333.522C1380.95 346.838 1379.97 375.906 1378.83 409.112C1377.59 445.215 1376.21 486.163 1355.35 517.811C1313.33 581.642 1192.93 607.131 837.937 477.545C531.276 365.584 228.082 364.147 -0.000503123 391.218V388.419C228.638 361.348 532.388 362.906 839.605 475.037C1191.88 603.625 1310.88 579.062 1352.01 516.593C1372.48 485.505 1373.89 444.898 1375.1 409.063C1376.24 375.321 1377.26 345.767 1393.97 331.696C1419.6 310.053 1481.28 325.658 1635 420.335ZM1635 404.851V408.43C1479.84 312.658 1418.26 297.078 1392.69 318.623C1376.44 332.329 1374.38 361.323 1371.99 394.31C1369.48 429.293 1366.66 468.707 1346.23 499.747C1303.09 565.258 1182.17 592.987 822.732 461.794C516.921 350.173 221.15 346.449 -0.000503123 371.28V368.481C221.706 343.649 518.033 347.447 824.399 459.286C1181.09 589.481 1300.61 562.702 1342.89 498.505C1363 467.977 1365.78 428.88 1368.27 394.14C1370.65 360.642 1372.78 331.185 1389.88 316.748C1416.69 294.181 1479.28 309.153 1635 404.851ZM1635 389.393V392.971C1477.84 296.153 1415.29 281.229 1388.54 303.772C1371.86 317.844 1368.69 346.765 1365.13 379.509C1361.43 413.323 1357.31 451.179 1337.3 481.586C1292.99 548.85 1171.58 578.964 807.559 446.091C502.631 334.763 214.25 328.774 -0.000503123 351.391V348.591C214.806 325.975 503.71 332.037 809.226 443.559C1170.5 575.434 1290.54 546.269 1333.96 480.344C1353.65 450.449 1357.74 412.861 1361.4 379.265C1365.03 346.035 1368.2 316.675 1385.73 301.898C1413.72 278.332 1477.25 292.623 1635 389.393ZM1635 373.934V377.512C1475.75 279.598 1412.25 265.381 1384.29 288.971C1367.19 303.383 1362.97 332.183 1358.23 364.658C1353.45 397.28 1348.16 433.578 1328.6 463.254C1283.11 532.32 1161.24 564.966 792.419 430.34C488.374 319.353 207.383 311.149 -0.000503123 331.525V328.726C207.939 308.349 489.486 316.675 794.054 427.833C1160.13 561.461 1280.6 529.764 1325.23 462.013C1344.49 432.799 1349.76 396.745 1354.5 364.342C1359.31 331.404 1363.59 302.19 1381.51 287.096C1410.71 262.484 1475.16 276.068 1635 373.934ZM1635 358.451V362.029C1473.66 263.02 1409.17 249.533 1379.91 274.194C1362.38 288.971 1357.12 317.6 1351.23 349.784C1345.47 381.164 1339.1 415.88 1320.07 444.777C1273.34 515.717 1151.07 551.09 777.213 414.614C474.182 303.992 200.549 293.523 -0.000503123 311.685V308.885C201.105 290.724 475.294 301.314 778.881 412.106C1149.96 547.56 1270.85 513.185 1316.73 443.535C1335.5 415.052 1341.81 380.58 1347.53 349.394C1353.52 316.773 1358.85 287.729 1377.13 272.319C1407.6 246.66 1473.07 259.514 1635 358.451ZM1635 342.992V346.57C1471.47 246.417 1406 233.709 1375.43 259.49C1357.51 274.583 1351.23 303.066 1344.2 334.909C1337.56 364.999 1330.24 398.084 1311.76 426.129C1263.76 499.017 1141.13 537.286 762.008 398.911C459.99 288.679 193.682 275.971 -0.0332031 291.868V289.093C194.238 273.171 461.135 285.977 763.643 396.404C1139.99 533.781 1261.24 496.485 1308.36 424.911C1326.57 397.256 1333.83 364.366 1340.44 334.471C1347.57 302.214 1353.94 273.366 1372.55 257.664C1404.43 230.836 1470.88 242.911 1635 342.992ZM1635 327.533V331.112C1469.24 229.789 1402.76 217.909 1370.85 244.834C1352.57 260.244 1345.28 288.508 1337.14 319.986C1329.71 348.737 1321.6 380.142 1303.75 407.262C1254.44 482.146 1131.52 523.58 746.868 383.16C445.995 273.342 186.945 258.394 -0.000503123 272.076V269.3C187.501 255.619 447.139 270.664 748.503 380.677C1130.37 520.075 1251.89 479.638 1300.38 406.044C1318.01 379.29 1326.08 348.055 1333.44 319.475C1341.68 287.583 1349.07 258.978 1368.04 242.984C1401.16 215.012 1468.65 226.259 1635 327.533ZM1635 312.05V315.604C1466.95 213.064 1399.43 202.085 1366.11 230.179C1347.5 245.857 1339.2 273.902 1330.01 305.014C1321.93 332.353 1313.13 362.054 1295.97 388.151C1245.28 465.129 1122.2 509.947 731.662 367.409C432.032 258.053 180.177 240.866 -0.000503123 252.308V249.533C180.765 238.115 433.176 255.351 733.33 364.926C1121.02 506.442 1242.76 462.646 1292.6 386.958C1309.57 361.202 1318.3 331.647 1326.34 304.454C1335.63 272.977 1344.04 244.615 1363.3 228.377C1397.86 199.212 1466.37 209.607 1635 312.05ZM1635 296.591V300.145C1464.6 196.364 1396.03 186.31 1361.24 215.621C1342.3 231.591 1333.05 259.344 1322.85 290.042C1314.25 315.92 1304.93 343.844 1288.51 368.797C1236.39 447.966 1113.27 496.485 716.522 351.658C418.102 242.789 173.473 223.435 -0.000503123 232.613V229.862C174.062 220.684 419.279 240.111 718.157 349.2C1112.06 492.979 1233.87 445.483 1285.14 367.628C1301.39 342.967 1310.65 315.166 1319.22 289.434C1329.55 258.394 1338.9 230.3 1358.46 213.819C1394.46 183.437 1464.01 192.883 1635 296.591ZM1635 281.132V284.686C1462.18 179.639 1392.56 170.559 1356.26 201.135C1337.04 217.349 1326.87 244.834 1315.65 275.094C1306.66 299.39 1296.98 325.488 1281.38 349.2C1227.75 430.632 1104.74 483.217 701.316 335.956C404.302 227.549 166.802 206.029 -0.000503123 212.967V210.216C167.424 203.278 405.48 224.896 702.951 333.473C1103.49 479.687 1225.2 428.149 1278.01 347.982C1293.48 324.514 1303.09 298.538 1312.02 274.364C1323.34 243.787 1333.64 216.01 1353.45 199.31C1390.96 167.686 1461.59 176.158 1635 281.132ZM1635 265.649V269.203C1459.69 162.841 1388.96 154.783 1351.13 186.699C1331.64 203.132 1320.56 230.276 1308.42 260.074C1299.2 282.714 1289.36 306.889 1274.65 329.188C1219.45 412.983 1096.69 470.071 686.144 320.205C390.601 212.358 160.197 188.671 -0.000503123 193.37V190.619C160.818 185.92 391.811 209.705 687.779 317.722C1095.45 466.541 1216.9 410.524 1271.28 327.971C1285.83 305.866 1295.64 281.814 1304.83 259.27C1317.09 229.18 1328.27 201.744 1348.32 184.849C1387.36 151.935 1459.11 159.36 1635 265.649ZM1635 250.19V253.744C1457.11 146.019 1385.3 139.081 1345.83 172.36C1326.12 188.987 1314.18 215.791 1301.17 245.078C1291.88 265.917 1282.07 288.022 1268.37 308.812C1211.53 395.114 1089.33 457.217 670.971 304.527C377.031 197.216 153.657 171.386 -0.000503123 173.821V171.094C154.278 168.66 378.24 194.562 672.606 302.02C1088.03 453.662 1208.98 392.63 1265 307.595C1278.54 287.048 1288.35 264.991 1297.6 244.225C1310.75 214.647 1322.78 187.624 1343.05 170.534C1383.7 136.208 1456.52 142.538 1635 250.19ZM1635 234.707V238.261C1454.46 129.124 1381.51 123.354 1340.37 158.07C1320.43 174.892 1307.71 201.282 1293.84 230.033C1241.95 337.612 1174.26 478.031 655.765 288.776C363.591 182.122 147.182 154.15 -0.000503123 154.345V151.618C147.804 151.424 364.833 179.493 657.433 286.293C1172.13 474.161 1239.04 335.421 1290.31 229.107C1304.3 200.089 1317.16 173.456 1337.56 156.244C1379.91 120.53 1453.87 125.667 1635 234.707ZM1635 219.248V222.802C1451.75 112.229 1377.65 107.701 1334.72 143.877C1314.6 160.821 1301.13 186.796 1286.48 214.988C1230.66 322.42 1158.17 461.964 640.593 273.05C350.315 167.102 140.74 136.987 -0.000503123 134.918V132.191C141.394 134.261 351.59 164.424 642.26 270.542C1156.17 458.118 1227.82 320.181 1282.98 213.989C1297.76 185.555 1311.37 159.36 1331.94 142.027C1376.02 104.852 1451.13 108.748 1635 219.248ZM1635 203.765V207.319C1448.9 95.2363 1373.63 92.0471 1328.89 129.757C1308.65 146.823 1294.46 172.311 1279.09 199.918C1219.35 307.205 1142.11 445.921 625.42 257.323C337.169 152.105 134.429 119.946 -0.000503123 115.613V112.935C135.083 117.244 338.445 149.476 627.055 254.815C1140.15 442.099 1216.54 304.941 1275.63 198.847C1291.13 171.045 1305.42 145.338 1326.08 127.907C1372.03 89.1988 1448.28 91.755 1635 203.765ZM1635 188.306V191.86C1445.99 78.2193 1369.51 76.4422 1322.88 115.759C1302.57 132.873 1287.73 157.875 1271.7 184.849C1208.04 291.99 1126.09 429.902 610.247 241.596C324.187 137.182 128.184 102.978 -0.000503123 96.4048V93.7269C128.87 100.3 325.495 134.553 611.882 239.089C1124.23 426.104 1205.29 289.701 1268.27 183.705C1284.39 156.56 1299.37 131.364 1320.1 113.909C1367.91 73.5939 1445.34 74.7381 1635 188.306ZM1635 172.847V176.401C1442.92 61.1537 1365.26 60.886 1316.67 101.858C1296.29 119.021 1280.86 143.463 1264.28 169.731C1196.69 276.726 1110.1 413.859 595.074 225.87C311.434 122.332 122.036 86.1557 -0.000503123 77.3186V74.665C122.755 83.5021 312.808 119.751 596.709 223.362C1108.3 410.11 1194.01 274.437 1260.88 168.562C1277.59 142.1 1293.15 117.487 1313.85 100.008C1363.62 58.0376 1442.3 57.6725 1635 172.847ZM1635 157.364V160.918C1439.78 43.9664 1360.88 45.3297 1310.19 88.0546C1289.85 105.193 1273.89 129.051 1256.79 154.613C1185.31 261.486 1094.11 397.816 579.869 210.119C298.943 107.579 116.019 69.4309 -0.000503123 58.3298V55.7249C116.771 66.8017 300.349 105.023 581.536 207.66C1092.41 394.14 1182.69 259.173 1253.46 153.396C1270.66 127.688 1286.71 103.684 1307.41 86.2287C1359.24 42.5058 1439.13 40.5095 1635 157.364ZM1635 141.905V145.459C1436.45 26.7548 1356.33 29.8709 1303.49 74.4216C1283.21 91.5115 1266.83 114.712 1249.3 139.495C1173.93 246.222 1078.15 381.821 564.696 194.392C286.648 92.9235 110.133 52.8522 -0.000503123 39.5114V36.9552C110.918 50.2717 288.119 90.343 566.331 191.909C1076.52 378.121 1171.35 243.86 1245.97 138.205C1263.59 113.276 1280.07 89.9291 1300.64 72.5714C1354.66 27.0469 1435.82 23.2735 1635 141.905ZM1635 126.422V129.976C1433.01 9.42138 1351.62 14.4364 1296.49 60.9103C1276.38 77.8785 1259.6 100.397 1241.78 124.352C1162.52 230.933 1062.19 365.803 549.523 178.665C274.647 78.3411 104.411 36.4439 -0.000503123 20.8634V18.3559C105.228 33.8877 276.216 75.8092 551.158 176.158C1060.66 362.127 1160 228.548 1238.51 122.989C1256.43 98.888 1273.27 76.2474 1293.68 59.0358C1349.95 11.6124 1432.36 5.96444 1635 126.422ZM1635 110.963V114.517C1429.38 -8.00939 1346.72 -0.925097 1289.2 47.5694C1269.28 64.3429 1252.28 86.107 1234.26 109.21C1151.1 215.645 1046.3 349.833 534.35 162.963C263.038 63.9047 98.8516 20.2304 -0.000503123 2.41012V0C99.7672 17.7472 264.673 61.4215 535.985 160.431C1044.8 346.157 1148.65 213.235 1231.02 107.798C1249.14 84.5976 1266.24 62.7118 1286.42 45.7192C1345.05 -3.72473 1428.73 -11.442 1635 110.963ZM-0.000503123 408.333C235.57 379.046 546.776 378.34 854.778 490.764C1202.8 617.794 1321.21 595.348 1361.3 534.511C1382.13 502.912 1381.97 460.795 1381.87 423.889C1381.77 389.928 1381.67 360.325 1397.92 346.619C1422.45 325.95 1483.21 342.164 1635 435.818V439.397C1483.76 345.694 1423.99 328.847 1400.74 348.469C1385.4 361.396 1385.5 390.512 1385.6 423.889C1385.73 461.088 1385.86 503.545 1364.67 535.753C1323.7 597.904 1203.88 621.275 853.11 493.247C545.697 381.042 235.047 381.846 -0.000503123 411.157V408.333Z" fill="url(#paint0_linear_260_7)"/>
</g>
<defs>
<linearGradient id="paint0_linear_260_7" x1="2.87762e-06" y1="355.5" x2="1635" y2="195.5" gradientUnits="userSpaceOnUse">
<stop stop-color="#EA6224" stop-opacity="0.4"/>
<stop offset="1" stop-color="#FEE0C5"/>
</linearGradient>
<clipPath id="clip0_260_7">
<rect width="1635" height="586" fill="white"/>
</clipPath>
</defs>
</svg>
